<svg width="24" height="24" viewBox="0 0 24 24" fill="none" xmlns="http://www.w3.org/2000/svg">
<path d="M6.50464 4H17.7546V4.96875H6.50464V4Z" fill="#ADA9BB"/>
<path d="M18.3795 5.75H6.41703C6.25754 5.74774 6.10015 5.7132 5.95436 5.64846C5.80857 5.58372 5.67741 5.49012 5.56878 5.37331C5.46015 5.25651 5.3763 5.11891 5.32229 4.96881C5.26828 4.81872 5.24523 4.65924 5.25453 4.5C5.25376 4.1831 5.37338 3.87773 5.58919 3.64567C5.80501 3.41361 6.10091 3.27218 6.41703 3.25H18.3795C18.5453 3.25 18.7043 3.18415 18.8215 3.06694C18.9387 2.94973 19.0045 2.79076 19.0045 2.625C19.0045 2.45924 18.9387 2.30027 18.8215 2.18306C18.7043 2.06585 18.5453 2 18.3795 2H6.41703C5.76928 2.02269 5.15565 2.29606 4.70557 2.76246C4.25549 3.22887 4.00414 3.85184 4.00453 4.5C3.99849 4.60199 3.99849 4.70426 4.00453 4.80625C3.99851 4.85607 3.99851 4.90643 4.00453 4.95625V19.5C4.00414 20.1482 4.25549 20.7711 4.70557 21.2375C5.15565 21.7039 5.76928 21.9773 6.41703 22H18.3795C18.5453 22 18.7043 21.9342 18.8215 21.8169C18.9387 21.6997 19.0045 21.5408 19.0045 21.375V6.53125V6.475V6.41875C19.0049 6.24871 18.9405 6.08492 18.8244 5.96069C18.7083 5.83646 18.5492 5.76112 18.3795 5.75Z" fill="#ADA9BB"/>
</svg>
