<svg width="16" height="16" viewBox="0 0 16 16" fill="none" xmlns="http://www.w3.org/2000/svg">
<path d="M7.93881 9.69863C8.39303 9.69863 8.82864 9.51819 9.14982 9.19701C9.471 8.87583 9.65144 8.44021 9.65144 7.98599C9.65144 7.93583 9.64915 7.88614 9.64487 7.83705L7.78987 9.69205C7.83895 9.69633 7.8885 9.69863 7.93881 9.69863ZM13.6076 2.68844L12.9544 2.0358C12.9314 2.01288 12.9003 2 12.8679 2C12.8355 2 12.8044 2.01288 12.7814 2.0358L11.1098 3.70792C10.1876 3.23663 9.15101 3.00099 7.99997 3.00099C5.06097 3.00099 2.86818 4.53166 1.42161 7.593C1.36347 7.71612 1.33331 7.85059 1.33331 7.98675C1.33331 8.12291 1.36347 8.25739 1.42161 8.38051C1.99963 9.59801 2.69564 10.5739 3.50965 11.308L1.89198 12.9251C1.86905 12.948 1.85618 12.9792 1.85618 13.0116C1.85618 13.044 1.86905 13.0751 1.89198 13.0981L2.54477 13.7508C2.56771 13.7738 2.59881 13.7866 2.63124 13.7866C2.66367 13.7866 2.69477 13.7738 2.71771 13.7508L13.6076 2.86154C13.619 2.85018 13.628 2.83668 13.6342 2.82183C13.6403 2.80698 13.6435 2.79106 13.6435 2.77499C13.6435 2.75891 13.6403 2.74299 13.6342 2.72814C13.628 2.71329 13.619 2.6998 13.6076 2.68844ZM5.24752 7.98599C5.24748 7.52114 5.36784 7.0642 5.59688 6.6597C5.82592 6.25519 6.15583 5.91691 6.55447 5.6778C6.9531 5.43869 7.40688 5.30691 7.87158 5.2953C8.33629 5.28369 8.79608 5.39264 9.20616 5.61154L8.46269 6.35501C8.16286 6.259 7.84237 6.24744 7.5364 6.32159C7.23043 6.39574 6.95079 6.55274 6.72817 6.77536C6.50555 6.99797 6.34856 7.27761 6.27441 7.58358C6.20026 7.88955 6.21182 8.21004 6.30783 8.50987L5.56436 9.25334C5.35572 8.86353 5.24687 8.42812 5.24752 7.98599Z" fill="#010620"/>
<path d="M14.5783 7.59145C14.04 6.45785 13.3994 5.53349 12.6563 4.81836L10.4522 7.02261C10.638 7.50829 10.6792 8.03738 10.5708 8.54595C10.4624 9.05453 10.209 9.52083 9.84134 9.88853C9.47364 10.2562 9.00734 10.5096 8.49876 10.618C7.99019 10.7264 7.4611 10.6852 6.97542 10.4994L5.1059 12.3689C5.97322 12.7703 6.93791 12.971 7.99995 12.971C10.939 12.971 13.1317 11.4403 14.5783 8.37896C14.6365 8.25584 14.6666 8.12137 14.6666 7.98521C14.6666 7.84904 14.6365 7.71457 14.5783 7.59145Z" fill="#010620"/>
</svg>
