<svg width="16" height="16" viewBox="0 0 16 16" fill="none" xmlns="http://www.w3.org/2000/svg">
<path d="M6.22617 8.31831C6.22617 8.77253 6.40661 9.20815 6.72779 9.52933C7.04897 9.85051 7.48459 10.0309 7.93881 10.0309C8.39303 10.0309 8.82865 9.85051 9.14983 9.52933C9.47101 9.20815 9.65145 8.77253 9.65145 8.31831C9.65145 7.86409 9.47101 7.42848 9.14983 7.10729C8.82865 6.78611 8.39303 6.60567 7.93881 6.60567C7.48459 6.60567 7.04897 6.78611 6.72779 7.10729C6.40661 7.42848 6.22617 7.86409 6.22617 8.31831ZM14.5783 7.92379C13.1287 4.8701 10.9375 3.33331 7.99998 3.33331C5.06097 3.33331 2.87124 4.8701 1.42161 7.92532C1.36347 8.04844 1.33331 8.18291 1.33331 8.31908C1.33331 8.45524 1.36347 8.58971 1.42161 8.71283C2.87124 11.7665 5.0625 13.3033 7.99998 13.3033C10.939 13.3033 13.1287 11.7665 14.5783 8.7113C14.6961 8.46358 14.6961 8.1761 14.5783 7.92379ZM7.93881 11.0096C6.45249 11.0096 5.24752 9.80464 5.24752 8.31831C5.24752 6.83199 6.45249 5.62702 7.93881 5.62702C9.42513 5.62702 10.6301 6.83199 10.6301 8.31831C10.6301 9.80464 9.42513 11.0096 7.93881 11.0096Z" fill="#010620"/>
</svg>
