<svg width="24" height="24" viewBox="0 0 24 24" fill="none" xmlns="http://www.w3.org/2000/svg">
<path d="M21.6 12.2222C21.6 11.3999 21.5333 10.7999 21.3889 10.1777H12V13.8888H17.5111C17.4 14.8111 16.8 16.1999 15.4666 17.1332L15.448 17.2575L18.4165 19.5572L18.6222 19.5777C20.5111 17.8333 21.6 15.2666 21.6 12.2222Z" fill="#4285F4"/>
<path d="M12 22C14.7 22 16.9666 21.1111 18.6222 19.5778L15.4667 17.1333C14.6222 17.7222 13.4889 18.1333 12 18.1333C9.35558 18.1333 7.11115 16.3889 6.31108 13.9778L6.1938 13.9877L3.10702 16.3766L3.06665 16.4889C4.71108 19.7555 8.08886 22 12 22Z" fill="#34A853"/>
<path d="M6.31107 13.9778C6.09996 13.3555 5.97779 12.6888 5.97779 12C5.97779 11.311 6.09996 10.6444 6.29996 10.0222L6.29437 9.88967L3.1689 7.4624L3.06664 7.51104C2.38889 8.86662 2 10.3889 2 12C2 13.6111 2.38889 15.1333 3.06664 16.4888L6.31107 13.9778Z" fill="#FBBC05"/>
<path d="M12 5.86664C13.8778 5.86664 15.1444 6.67775 15.8667 7.35557L18.6889 4.6C16.9556 2.98889 14.7 2 12 2C8.08886 2 4.71108 4.24443 3.06665 7.51107L6.29997 10.0222C7.11115 7.61111 9.35558 5.86664 12 5.86664Z" fill="#EB4335"/>
</svg>
