<svg width="24" height="24" viewBox="0 0 24 24" fill="none" xmlns="http://www.w3.org/2000/svg">
<path d="M15.3334 7.33333C15.3334 8.21739 14.9822 9.06523 14.3571 9.69036C13.732 10.3155 12.8841 10.6667 12.0001 10.6667C11.116 10.6667 10.2682 10.3155 9.64306 9.69036C9.01794 9.06523 8.66675 8.21739 8.66675 7.33333C8.66675 6.44928 9.01794 5.60143 9.64306 4.97631C10.2682 4.35119 11.116 4 12.0001 4C12.8841 4 13.732 4.35119 14.3571 4.97631C14.9822 5.60143 15.3334 6.44928 15.3334 7.33333Z" fill="#010620"/>
<path d="M20.8888 9.5556C20.8888 10.145 20.6547 10.7102 20.2379 11.1269C19.8212 11.5437 19.2559 11.7778 18.6666 11.7778C18.0772 11.7778 17.512 11.5437 17.0952 11.1269C16.6785 10.7102 16.4443 10.145 16.4443 9.5556C16.4443 8.96623 16.6785 8.401 17.0952 7.98425C17.512 7.5675 18.0772 7.33337 18.6666 7.33337C19.2559 7.33337 19.8212 7.5675 20.2379 7.98425C20.6547 8.401 20.8888 8.96623 20.8888 9.5556Z" fill="#010620"/>
<path d="M16.4443 17.3334C16.4443 16.1546 15.9761 15.0242 15.1426 14.1907C14.3091 13.3572 13.1786 12.8889 11.9999 12.8889C10.8211 12.8889 9.69066 13.3572 8.85717 14.1907C8.02367 15.0242 7.55542 16.1546 7.55542 17.3334V20.6667H16.4443V17.3334Z" fill="#010620"/>
<path d="M7.55553 9.5556C7.55553 10.145 7.3214 10.7102 6.90465 11.1269C6.48791 11.5437 5.92268 11.7778 5.33331 11.7778C4.74394 11.7778 4.17871 11.5437 3.76196 11.1269C3.34521 10.7102 3.11108 10.145 3.11108 9.5556C3.11108 8.96623 3.34521 8.401 3.76196 7.98425C4.17871 7.5675 4.74394 7.33337 5.33331 7.33337C5.92268 7.33337 6.48791 7.5675 6.90465 7.98425C7.3214 8.401 7.55553 8.96623 7.55553 9.5556Z" fill="#010620"/>
<path d="M18.6666 20.6667V17.3334C18.6682 16.2037 18.3814 15.0923 17.8333 14.1045C18.3259 13.9784 18.8408 13.9665 19.3387 14.0697C19.8366 14.1729 20.3043 14.3885 20.7062 14.6999C21.1082 15.0114 21.4336 15.4106 21.6578 15.8669C21.882 16.3233 21.999 16.8249 21.9999 17.3334V20.6667H18.6666Z" fill="#010620"/>
<path d="M6.16667 14.1045C5.61861 15.0923 5.33178 16.2037 5.33333 17.3334V20.6667H2V17.3334C1.99979 16.8245 2.11607 16.3224 2.33994 15.8655C2.56381 15.4085 2.88933 15.0089 3.29154 14.6972C3.69375 14.3855 4.16198 14.17 4.66034 14.0673C5.15871 13.9646 5.67398 13.9773 6.16667 14.1045Z" fill="#010620"/>
</svg>
