<svg width="20" height="20" viewBox="0 0 20 20" fill="none" xmlns="http://www.w3.org/2000/svg">
<path d="M5.42053 3.33325H14.7955V4.14054H5.42053V3.33325Z" fill="#5784BA"/>
<path d="M15.3163 4.79163H5.34757C5.21465 4.78974 5.0835 4.76096 4.96201 4.70701C4.84052 4.65306 4.73122 4.57506 4.64069 4.47772C4.55016 4.38038 4.48029 4.26572 4.43528 4.14064C4.39028 4.01556 4.37107 3.88266 4.37882 3.74996C4.37817 3.48587 4.47785 3.2314 4.6577 3.03802C4.83755 2.84463 5.08413 2.72678 5.34757 2.70829H15.3163C15.4545 2.70829 15.5869 2.65342 15.6846 2.55574C15.7823 2.45807 15.8372 2.32559 15.8372 2.18746C15.8372 2.04933 15.7823 1.91685 15.6846 1.81917C15.5869 1.7215 15.4545 1.66663 15.3163 1.66663H5.34757C4.80777 1.68553 4.29641 1.91334 3.92135 2.30201C3.54628 2.69068 3.33682 3.20983 3.33715 3.74996C3.33211 3.83495 3.33211 3.92017 3.33715 4.00517C3.33213 4.04668 3.33213 4.08865 3.33715 4.13017V16.25C3.33682 16.7901 3.54628 17.3092 3.92135 17.6979C4.29641 18.0866 4.80777 18.3144 5.34757 18.3333H15.3163C15.4545 18.3333 15.5869 18.2784 15.6846 18.1807C15.7823 18.0831 15.8372 17.9506 15.8372 17.8125V5.44267V5.39579V5.34892C15.8375 5.20722 15.7838 5.07073 15.687 4.9672C15.5903 4.86368 15.4577 4.8009 15.3163 4.79163Z" fill="#5784BA"/>
</svg>
