<svg width="24" height="24" viewBox="0 0 24 24" fill="none" xmlns="http://www.w3.org/2000/svg">
<mask id="mask0" mask-type="alpha" maskUnits="userSpaceOnUse" x="0" y="0" width="24" height="24">
<rect width="24" height="24" fill="#C4C4C4"/>
</mask>
<g mask="url(#mask0)">
<path d="M4.0419 14.0781L3.06667 13.3619L4.42286 11.8838L2.65524 11.1524L3.17333 10.1162L4.72762 10.8781L4.65143 9.18667H5.93143L5.85524 10.8781L7.40952 10.1162L7.91238 11.1524L6.14476 11.8838L7.50095 13.3619L6.52571 14.0781L5.29143 12.4476L4.0419 14.0781ZM10.6193 14.0781L9.64405 13.3619L11.0002 11.8838L9.23262 11.1524L9.75071 10.1162L11.305 10.8781L11.2288 9.18667H12.5088L12.4326 10.8781L13.9869 10.1162L14.4898 11.1524L12.7221 11.8838L14.0783 13.3619L13.1031 14.0781L11.8688 12.4476L10.6193 14.0781ZM17.1967 14.0781L16.2214 13.3619L17.5776 11.8838L15.81 11.1524L16.3281 10.1162L17.8824 10.8781L17.8062 9.18667H19.0862L19.01 10.8781L20.5643 10.1162L21.0671 11.1524L19.2995 11.8838L20.6557 13.3619L19.6805 14.0781L18.4462 12.4476L17.1967 14.0781Z" fill="#3F4356"/>
</g>
</svg>
