<svg width="14" height="15" viewBox="0 0 14 15" fill="none" xmlns="http://www.w3.org/2000/svg">
<path d="M12.8332 10.9936C12.8332 11.0923 12.7971 11.1778 12.7249 11.2499C12.6528 11.3221 12.5673 11.3582 12.4686 11.3582C12.3698 11.3582 12.2844 11.3221 12.2122 11.2499C12.1401 11.1778 12.104 11.0923 12.104 10.9936V6.19705L8.08219 8.21365C7.77838 8.36556 7.41759 8.44152 6.99984 8.44152C6.58209 8.44152 6.2213 8.36556 5.91748 8.21365L1.61084 6.06033C1.31462 5.90842 1.1665 5.72803 1.1665 5.51916C1.1665 5.31028 1.31462 5.13368 1.61084 4.98937L5.91748 2.83605C6.2213 2.68414 6.58209 2.60818 6.99984 2.60818C7.41759 2.60818 7.77838 2.68414 8.08219 2.83605L12.3888 4.98937C12.6471 5.11849 12.7914 5.278 12.8218 5.46789C12.8294 5.47548 12.8332 5.49067 12.8332 5.51346V10.9936ZM8.44678 8.94282L10.6457 7.83768V9.44412C10.6457 9.77073 10.2906 10.0499 9.5804 10.2815C8.87023 10.5132 8.01004 10.629 6.99984 10.629C5.98964 10.629 5.12945 10.5132 4.41927 10.2815C3.70909 10.0499 3.354 9.77073 3.354 9.44412V7.83768L5.5529 8.94282C5.85672 9.09473 6.33903 9.17068 6.99984 9.17068C7.66065 9.17068 8.14296 9.09473 8.44678 8.94282Z" fill="black"/>
</svg>
