<svg width="196" height="190" viewBox="0 0 196 190" fill="none" xmlns="http://www.w3.org/2000/svg">
<circle cx="104" cy="98.0001" r="92" fill="#E5E6EB"/>
<mask id="mask0" mask-type="alpha" maskUnits="userSpaceOnUse" x="12" y="6" width="184" height="184">
<circle cx="104" cy="98.0001" r="92" fill="#CECACA"/>
</mask>
<g mask="url(#mask0)">
<path d="M183.702 163.122C184.079 163.016 187.985 155.581 187.985 155.581C187.985 155.581 187.789 149.291 187.804 146.215C187.819 143.138 190.187 142.625 190.821 144.133C191.345 146.118 191.748 148.133 192.027 150.166C192.148 150.166 195.692 140.106 196.552 139.609C197.411 139.111 206.642 143.952 207.109 147.059C207.335 148.567 205.782 153.59 204.002 158.356C203.505 159.698 198.844 162.579 198.844 162.579C197.875 164.539 196.713 166.399 195.375 168.129L183.702 163.122Z" fill="#FFC9B0"/>
<path d="M195.436 169.607C195.234 169.606 195.033 169.565 194.847 169.486L183.129 164.509C182.896 164.41 182.692 164.254 182.536 164.055C182.379 163.857 182.275 163.622 182.233 163.373C182.191 163.123 182.213 162.868 182.295 162.629C182.378 162.39 182.519 162.175 182.706 162.005C183.189 161.342 184.939 158.16 186.477 155.219C186.477 153.71 186.296 148.854 186.311 146.169C186.326 143.485 187.819 142.112 189.116 141.841C189.749 141.708 190.407 141.802 190.978 142.105C191.548 142.408 191.994 142.902 192.238 143.5C192.393 143.844 192.514 144.203 192.6 144.571C194.682 139.307 195.209 138.538 195.933 138.221C196.401 137.98 197.11 137.618 200.458 139.367C202.238 140.272 208.089 143.5 208.587 146.773C208.904 148.854 207.079 154.48 205.39 158.838C204.847 160.346 201.906 162.383 199.99 163.604C199.009 165.552 197.826 167.392 196.461 169.094C196.2 169.393 195.832 169.578 195.436 169.607ZM185.979 162.443L195.028 166.259C195.992 164.856 196.858 163.39 197.623 161.87C197.747 161.623 197.941 161.418 198.181 161.282C199.846 160.322 201.369 159.134 202.705 157.752C205.118 151.327 205.827 147.949 205.722 147.195C205.48 145.551 199.689 141.946 197.351 141.162C196.552 142.67 195.013 146.788 194.335 148.447C193.264 151.237 193.128 151.599 191.997 151.554C190.866 151.508 190.564 150.498 190.353 148.99C190.184 147.627 189.927 146.277 189.584 144.948C189.391 145.32 189.303 145.736 189.327 146.154C189.327 149.171 189.508 155.4 189.508 155.475C189.522 155.732 189.465 155.988 189.343 156.214C187.729 159.336 186.718 161.251 185.979 162.443Z" fill="#093F68"/>
<path d="M194.817 158.733C194.433 158.733 194.062 158.587 193.782 158.323C193.501 158.06 193.332 157.699 193.309 157.315C193.287 155.064 192.475 152.891 191.017 151.177C190.736 150.894 190.578 150.512 190.578 150.113C190.578 149.715 190.736 149.333 191.017 149.05C191.299 148.774 191.678 148.619 192.072 148.619C192.467 148.619 192.846 148.774 193.128 149.05C195.16 151.287 196.308 154.188 196.356 157.209C196.356 157.594 196.21 157.965 195.946 158.245C195.683 158.525 195.322 158.694 194.938 158.718L194.817 158.733Z" fill="#093F68"/>
<path d="M199.93 170.602C198.422 172.834 186.07 193.783 168.152 202.546C163.577 204.814 158.539 205.991 153.432 205.985C149.511 205.985 144.383 203.104 139.994 200.148C137.611 198.504 135.47 196.845 133.962 195.623C132.453 194.402 131.639 193.602 131.639 193.602V201.671L131.549 232.333H77.1629V190.661C63.74 194.175 51.8403 199.122 49.578 202.516C47.9642 206.09 50.7243 218.156 57.0134 229.045L36.517 240.779C33.6364 235.817 19.7006 210.011 28.4029 192.094C32.641 183.377 43.3643 177.51 61.1761 170.753C82.6528 162.609 103.918 165.746 116.331 165.61C124.782 165.54 132.949 168.664 139.195 174.358C144.745 179.365 152.045 184.101 157.791 181.31C168.349 176.137 179.011 162.971 182.209 158.326L199.93 170.602Z" fill="#5784BA"/>
<path d="M36.5321 242.287C36.2678 242.289 36.0075 242.223 35.7772 242.093C35.5469 241.963 35.3547 241.775 35.22 241.548C32.2036 236.45 17.9813 210.087 27.0455 191.43C31.6757 181.899 43.3341 175.911 60.6482 169.35C77.9623 162.79 95.0954 163.423 107.613 163.891C110.781 164.011 113.782 164.132 116.316 164.102C125.147 164.011 133.684 167.272 140.206 173.227C145.122 177.661 152.045 182.427 157.128 179.953C167.428 174.916 178.046 161.704 180.957 157.466C181.07 157.3 181.215 157.159 181.383 157.05C181.552 156.942 181.74 156.868 181.937 156.832C182.131 156.794 182.33 156.797 182.523 156.842C182.715 156.886 182.896 156.97 183.053 157.089L200.775 169.32C201.105 169.546 201.331 169.894 201.405 170.287C201.478 170.68 201.393 171.087 201.167 171.417C201.031 171.598 200.835 171.914 200.564 172.337C190.625 187.811 179.931 198.413 168.816 203.843C164.036 206.217 158.77 207.451 153.432 207.447C149.843 207.447 145.167 205.457 139.135 201.339C136.827 199.831 134.746 198.112 133.177 196.815L133.072 232.257C133.072 232.657 132.913 233.041 132.63 233.324C132.347 233.607 131.964 233.766 131.564 233.766H77.1629C76.7629 233.766 76.3793 233.607 76.0964 233.324C75.8136 233.041 75.6547 232.657 75.6547 232.257V192.637C61.8095 196.423 52.6999 200.842 50.9052 203.194C49.759 206.135 52.0665 217.417 58.2652 228.23C58.3649 228.403 58.4296 228.593 58.4555 228.79C58.4814 228.987 58.4681 229.188 58.4162 229.38C58.3643 229.572 58.275 229.752 58.1533 229.909C58.0316 230.066 57.88 230.198 57.7072 230.297L37.2711 242.076C37.0471 242.209 36.7925 242.281 36.5321 242.287ZM96.3019 166.636C85.8954 166.636 73.7845 167.586 61.719 172.171C45.5662 178.294 33.9531 184.146 29.7603 192.743C21.9478 208.82 33.199 231.684 37.0901 238.712L54.9019 228.442C49.2914 218.11 46.2449 206.181 48.2055 201.852C48.2367 201.777 48.2772 201.706 48.3262 201.641C51.1465 197.418 64.6449 192.335 76.7708 189.168C76.9986 189.107 77.2377 189.099 77.4688 189.147C77.6999 189.195 77.9165 189.296 78.1014 189.443C78.2862 189.59 78.434 189.778 78.533 189.992C78.6319 190.206 78.6793 190.441 78.6711 190.676V230.825H130.07L130.161 193.602C130.163 193.31 130.249 193.026 130.41 192.782C130.571 192.538 130.798 192.346 131.066 192.23C131.334 192.112 131.631 192.075 131.921 192.123C132.21 192.171 132.479 192.303 132.695 192.501C132.695 192.501 133.554 193.286 134.972 194.462C136.39 195.638 138.562 197.327 140.839 198.896C147.611 203.511 151.396 204.476 153.432 204.476C158.308 204.477 163.119 203.352 167.489 201.188C174.758 197.629 185.919 189.515 197.864 171.025L182.571 160.467C178.544 165.972 168.545 177.781 158.44 182.728C153.146 185.307 146.374 182.879 138.185 175.534C132.223 170.089 124.42 167.104 116.346 167.179C113.737 167.179 110.705 167.088 107.493 166.967C104.28 166.847 100.314 166.681 96.3019 166.681V166.636Z" fill="#093F68"/>
<path d="M97.9609 160.497H109.8V167.344C109.8 168.684 109.268 169.97 108.32 170.917C107.373 171.865 106.088 172.397 104.748 172.397H103.013C101.673 172.397 100.388 171.865 99.4408 170.917C98.4933 169.97 97.9609 168.684 97.9609 167.344V160.497Z" fill="#FFC9B0"/>
<path d="M104.808 173.905H103.013C101.273 173.905 99.6047 173.214 98.3743 171.984C97.144 170.753 96.4528 169.084 96.4528 167.344V160.497C96.4528 160.097 96.6117 159.714 96.8945 159.431C97.1773 159.148 97.561 158.989 97.961 158.989H109.8C110.2 158.989 110.584 159.148 110.867 159.431C111.15 159.714 111.309 160.097 111.309 160.497V167.344C111.309 169.074 110.626 170.734 109.408 171.962C108.191 173.191 106.538 173.889 104.808 173.905ZM99.4692 162.005V167.344C99.4692 168.284 99.8426 169.186 100.507 169.851C101.172 170.515 102.073 170.889 103.013 170.889H104.808C105.748 170.889 106.65 170.515 107.314 169.851C107.979 169.186 108.352 168.284 108.352 167.344V162.005H99.4692Z" fill="#093F68"/>
<path d="M62.0206 129.594C62.0206 129.594 51.4632 84.9367 55.3845 77.8029C59.3058 70.6691 65.4744 73.3688 65.4744 73.3688C65.4744 73.3688 73.8298 49.2377 92.2901 48.2724C110.75 47.3072 119.845 59.8252 130.176 58.3622C140.507 56.8993 145.424 53.1891 145.424 53.1891C147.157 56.5063 147.871 60.2617 147.477 63.9835C147.082 67.7054 145.597 71.2276 143.207 74.1078C143.207 74.1078 150.838 69.4324 151.819 80.2462C152.799 91.0599 146.163 128.508 146.163 128.508L138.773 127.227L62.0206 129.594Z" fill="#F4CFDF"/>
<path d="M62.0206 131.103C61.674 131.112 61.3348 131.001 61.0602 130.79C60.7855 130.578 60.592 130.279 60.5124 129.941C59.4114 125.311 49.955 84.4992 54.0121 77.0789C57.0285 71.574 61.5531 70.9255 64.5695 71.5287C66.696 66.235 75.3531 47.6841 92.1996 46.7792C102.757 46.2061 110.554 50.0068 116.783 53.0533C121.625 55.4212 125.832 57.4723 129.95 56.8841C139.798 55.4664 144.474 52.0278 144.519 51.9976C144.689 51.8696 144.885 51.7793 145.093 51.7325C145.301 51.6857 145.517 51.6835 145.726 51.7261C145.933 51.77 146.129 51.8572 146.3 51.9819C146.472 52.1067 146.615 52.2662 146.721 52.4501C148.252 55.4102 149.051 58.6943 149.051 62.0271C149.051 65.3599 148.252 68.644 146.721 71.6042C147.628 71.5592 148.53 71.7626 149.33 72.1923C151.623 73.3537 152.98 76.0081 153.357 80.1255C154.337 91.0297 147.943 127.211 147.671 128.75C147.601 129.141 147.38 129.488 147.055 129.717C146.73 129.946 146.328 130.037 145.937 129.971L138.697 128.704L62.1111 131.103H62.0206ZM62.7144 74.3641C61.0101 74.3641 58.597 75.1032 56.6816 78.5268C54.0724 83.2474 59.1852 110.878 63.1819 128.041L138.697 125.688C138.802 125.673 138.909 125.673 139.014 125.688L144.896 126.714C146.118 119.685 151.125 89.6874 150.28 80.3819C150.024 77.3655 149.209 75.5255 147.927 74.8769C147.269 74.6699 146.573 74.6086 145.888 74.6971C145.203 74.7856 144.545 75.022 143.961 75.3897C143.658 75.5742 143.3 75.646 142.949 75.5925C142.598 75.5389 142.278 75.3634 142.043 75.0969C141.809 74.8303 141.677 74.4898 141.669 74.1351C141.661 73.7804 141.778 73.4343 142 73.1576C144.05 70.7306 145.392 67.786 145.879 64.6467C146.366 61.5074 145.979 58.2947 144.76 55.3609C140.272 57.7278 135.392 59.2609 130.357 59.8855C125.274 60.6094 120.705 58.3773 115.426 55.7832C109.197 52.7668 102.169 49.2828 92.3354 49.7504C75.1268 50.6704 66.9524 73.595 66.8619 73.8815C66.7947 74.0779 66.6877 74.2583 66.5475 74.4114C66.4074 74.5645 66.2372 74.6871 66.0475 74.7714C65.8572 74.8544 65.6518 74.8973 65.4442 74.8973C65.2366 74.8973 65.0312 74.8544 64.8409 74.7714C64.1624 74.5085 63.442 74.3705 62.7144 74.3641Z" fill="#093F68"/>
<path d="M69.8934 139.564C76.2822 139.564 81.4613 135.1 81.4613 129.594C81.4613 124.089 76.2822 119.625 69.8934 119.625C63.5047 119.625 58.3256 124.089 58.3256 129.594C58.3256 135.1 63.5047 139.564 69.8934 139.564Z" fill="#FFC9B0"/>
<path d="M69.8934 141.057C62.6993 141.057 56.8324 135.914 56.8324 129.594C56.8324 123.275 62.6993 118.117 69.8934 118.117C77.0875 118.117 82.9695 123.26 82.9695 129.594C82.9695 135.929 77.1026 141.057 69.8934 141.057ZM69.8934 121.133C64.3583 121.133 59.8488 124.934 59.8488 129.594C59.8488 134.255 64.3734 138.04 69.8934 138.04C75.4134 138.04 79.9531 134.255 79.9531 129.594C79.9531 124.934 75.4436 121.133 69.8934 121.133Z" fill="#093F68"/>
<path d="M137.31 139.564C143.699 139.564 148.878 135.1 148.878 129.594C148.878 124.089 143.699 119.625 137.31 119.625C130.921 119.625 125.742 124.089 125.742 129.594C125.742 135.1 130.921 139.564 137.31 139.564Z" fill="#FFC9B0"/>
<path d="M137.31 141.057C130.101 141.057 124.234 135.914 124.234 129.594C124.234 123.275 130.101 118.117 137.31 118.117C144.519 118.117 150.371 123.26 150.371 129.594C150.371 135.929 144.489 141.057 137.31 141.057ZM137.31 121.133C131.76 121.133 127.25 124.934 127.25 129.594C127.25 134.255 131.775 138.04 137.31 138.04C142.845 138.04 147.354 134.255 147.354 129.594C147.354 124.934 142.845 121.133 137.31 121.133Z" fill="#093F68"/>
<path d="M103.903 162.066C94.6631 162.054 85.8055 158.375 79.276 151.837C72.7465 145.299 69.079 136.436 69.079 127.196V94.9058C69.079 94.9058 73.3924 103.955 86.1819 91.7084C123.329 110.531 138.818 94.9058 138.818 94.9058V127.196C138.818 131.779 137.915 136.317 136.159 140.551C134.404 144.784 131.832 148.63 128.589 151.869C125.346 155.107 121.497 157.675 117.261 159.425C113.025 161.174 108.486 162.072 103.903 162.066Z" fill="#FFC9B0"/>
<path d="M103.903 163.574C94.2668 163.55 85.0325 159.708 78.2227 152.89C71.413 146.072 67.5827 136.833 67.5707 127.196V94.9058C67.5653 94.5594 67.6793 94.2216 67.8937 93.9493C68.108 93.6771 68.4095 93.4869 68.7475 93.4108C69.0855 93.3347 69.4395 93.3773 69.7498 93.5315C70.0601 93.6856 70.3078 93.9419 70.4514 94.2573C70.7761 94.849 71.2266 95.3623 71.7713 95.761C72.3159 96.1597 72.9413 96.4341 73.6035 96.5648C75.6396 96.9117 79.2894 96.1727 85.0658 90.6225C85.2909 90.4076 85.577 90.2676 85.8849 90.2217C86.1927 90.1758 86.5072 90.2262 86.7852 90.3661C105.442 99.8074 118.322 100.23 125.832 98.9176C133.886 97.515 137.642 93.8651 137.687 93.835C137.899 93.6257 138.168 93.4839 138.461 93.4276C138.753 93.3712 139.056 93.4028 139.331 93.5183C139.603 93.6337 139.836 93.8269 140 94.0736C140.163 94.3203 140.251 94.6098 140.251 94.9058V127.196C140.239 136.835 136.406 146.077 129.593 152.895C122.78 159.714 113.542 163.554 103.903 163.574ZM70.5871 98.5858V127.242C70.5991 136.086 74.1178 144.564 80.3717 150.818C86.6255 157.072 95.1041 160.591 103.948 160.603C112.793 160.591 121.271 157.072 127.525 150.818C133.779 144.564 137.298 136.086 137.31 127.242V97.9373C131.473 101.632 115.516 107.937 86.4534 93.5183C81.3707 98.1937 76.8763 100.215 73.0907 99.5511C72.2059 99.3791 71.3584 99.0523 70.5871 98.5858Z" fill="#093F68"/>
<path d="M87.7655 121.455C89.548 121.455 90.993 120.01 90.993 118.228C90.993 116.445 89.548 115 87.7655 115C85.983 115 84.538 116.445 84.538 118.228C84.538 120.01 85.983 121.455 87.7655 121.455Z" fill="#093F68"/>
<path d="M121.067 121.455C122.849 121.455 124.294 120.01 124.294 118.228C124.294 116.445 122.849 115 121.067 115C119.284 115 117.839 116.445 117.839 118.228C117.839 120.01 119.284 121.455 121.067 121.455Z" fill="#093F68"/>
<path d="M116.632 137.622C116.691 139.33 116.406 141.031 115.793 142.626C115.18 144.221 114.252 145.676 113.065 146.905C111.878 148.134 110.456 149.111 108.883 149.778C107.31 150.445 105.619 150.789 103.911 150.789C102.202 150.789 100.511 150.445 98.9386 149.778C97.3658 149.111 95.9435 148.134 94.7564 146.905C93.5692 145.676 92.6416 144.221 92.0288 142.626C91.4159 141.031 91.1304 139.33 91.1892 137.622H116.632Z" fill="white"/>
<path d="M103.903 151.86C100.13 151.856 96.5124 150.354 93.8456 147.684C91.1788 145.015 89.6809 141.396 89.6809 137.622C89.6809 137.222 89.8398 136.839 90.1226 136.556C90.4055 136.273 90.7891 136.114 91.1891 136.114H116.632C117.032 136.114 117.416 136.273 117.699 136.556C117.982 136.839 118.141 137.222 118.141 137.622C118.141 141.398 116.641 145.019 113.971 147.689C111.301 150.36 107.679 151.86 103.903 151.86ZM92.8029 139.13C93.1613 141.822 94.4852 144.293 96.5284 146.082C98.5716 147.871 101.195 148.857 103.911 148.857C106.627 148.857 109.25 147.871 111.293 146.082C113.336 144.293 114.66 141.822 115.019 139.13H92.8029Z" fill="#093F68"/>
<path d="M103.768 130.595C102.686 130.59 101.607 130.5 100.54 130.323C100.342 130.289 100.153 130.215 99.9829 130.108C99.8132 130 99.6664 129.86 99.5509 129.695C99.4353 129.53 99.3533 129.345 99.3095 129.148C99.2658 128.952 99.2611 128.749 99.2958 128.551C99.3304 128.353 99.4037 128.164 99.5115 127.994C99.6194 127.824 99.7596 127.678 99.9241 127.562C100.089 127.447 100.274 127.365 100.471 127.321C100.667 127.277 100.87 127.272 101.068 127.307C102.458 127.544 103.874 127.584 105.276 127.428C104.723 124.985 103.824 122.633 102.606 120.445C102.425 120.092 102.39 119.682 102.509 119.304C102.627 118.926 102.89 118.61 103.24 118.424C103.594 118.238 104.007 118.2 104.389 118.319C104.771 118.438 105.09 118.703 105.276 119.057C106.784 121.832 109.001 126.809 108.021 128.981C107.884 129.296 107.677 129.575 107.415 129.797C107.154 130.019 106.845 130.179 106.512 130.263C105.614 130.48 104.692 130.592 103.768 130.595Z" fill="#093F68"/>
<path d="M106.045 173.694H102.35C100.934 173.694 99.7859 174.842 99.7859 176.258V178.068C99.7859 179.484 100.934 180.632 102.35 180.632H106.045C107.461 180.632 108.609 179.484 108.609 178.068V176.258C108.609 174.842 107.461 173.694 106.045 173.694Z" fill="white"/>
<path d="M106.045 182.14H102.35C101.27 182.14 100.234 181.711 99.4703 180.947C98.7066 180.184 98.2776 179.148 98.2776 178.068V176.258C98.2776 175.178 98.7066 174.142 99.4703 173.378C100.234 172.615 101.27 172.186 102.35 172.186H106.045C107.125 172.186 108.161 172.615 108.924 173.378C109.688 174.142 110.117 175.178 110.117 176.258V178.068C110.117 179.148 109.688 180.184 108.924 180.947C108.161 181.711 107.125 182.14 106.045 182.14ZM102.35 175.202C102.07 175.202 101.801 175.313 101.603 175.511C101.405 175.709 101.294 175.978 101.294 176.258V178.068C101.294 178.348 101.405 178.616 101.603 178.814C101.801 179.012 102.07 179.123 102.35 179.123H106.045C106.325 179.123 106.593 179.012 106.791 178.814C106.989 178.616 107.101 178.348 107.101 178.068V176.258C107.101 175.978 106.989 175.709 106.791 175.511C106.593 175.313 106.325 175.202 106.045 175.202H102.35Z" fill="#093F68"/>
<path d="M101.671 180.632L96.1058 212.168L104.19 222.786L110.268 211.655L106.724 180.632H101.671Z" fill="white"/>
<path d="M104.205 224.294C103.971 224.294 103.74 224.239 103.53 224.135C103.321 224.03 103.139 223.878 102.998 223.691L94.8993 213.133C94.6548 212.793 94.552 212.371 94.6128 211.957L100.178 180.451C100.239 180.097 100.425 179.776 100.701 179.546C100.978 179.317 101.327 179.194 101.686 179.199H106.784C107.157 179.197 107.517 179.333 107.796 179.58C108.074 179.828 108.251 180.171 108.292 180.541L111.821 211.55C111.857 211.863 111.794 212.179 111.64 212.455L105.608 223.585C105.488 223.806 105.315 223.993 105.104 224.13C104.893 224.267 104.652 224.35 104.401 224.369L104.205 224.294ZM97.7348 211.791L104.024 220.026L108.745 211.354L105.411 182.14H102.968L97.7348 211.791Z" fill="#093F68"/>
<path d="M77.1629 198.428C76.7629 198.428 76.3793 198.269 76.0964 197.987C75.8136 197.704 75.6547 197.32 75.6547 196.92C75.6547 190.887 75.7904 180.918 75.6547 179.938C75.5733 179.552 75.6461 179.15 75.8575 178.818C76.069 178.485 76.4021 178.248 76.7858 178.158C76.9821 178.112 77.1856 178.105 77.3845 178.138C77.5834 178.172 77.7735 178.245 77.9437 178.353C78.1138 178.462 78.2605 178.603 78.3751 178.769C78.4897 178.935 78.5698 179.122 78.6108 179.32C78.8068 180.179 78.7465 189.379 78.6108 196.965C78.5996 197.347 78.4439 197.711 78.1752 197.982C77.9064 198.254 77.5446 198.413 77.1629 198.428Z" fill="#093F68"/>
<path d="M131.669 195.11C131.269 195.11 130.885 194.951 130.603 194.669C130.32 194.386 130.161 194.002 130.161 193.602V181.612C130.161 181.212 130.32 180.828 130.603 180.546C130.885 180.263 131.269 180.104 131.669 180.104C132.069 180.104 132.453 180.263 132.736 180.546C133.018 180.828 133.177 181.212 133.177 181.612V193.602C133.177 194.002 133.018 194.386 132.736 194.669C132.453 194.951 132.069 195.11 131.669 195.11Z" fill="#093F68"/>
<path d="M125.621 192.758H116.572C116.172 192.758 115.788 192.599 115.506 192.316C115.223 192.033 115.064 191.649 115.064 191.249C115.064 190.849 115.223 190.466 115.506 190.183C115.788 189.9 116.172 189.741 116.572 189.741H125.621C126.021 189.741 126.405 189.9 126.688 190.183C126.971 190.466 127.129 190.849 127.129 191.249C127.129 191.649 126.971 192.033 126.688 192.316C126.405 192.599 126.021 192.758 125.621 192.758Z" fill="#093F68"/>
</g>
<path d="M25.5089 13.1226C22.4476 14.1737 19.9292 16.3978 18.5077 19.3057C17.0863 22.2136 16.8783 25.5671 17.9294 28.6284C20.1148 34.9934 27.2296 34.5358 30.2715 41.9026L39.4281 38.7586C37.3031 31.0771 43.2001 27.067 41.0147 20.7021C39.9636 17.6408 37.7395 15.1224 34.8316 13.7009C31.9237 12.2795 28.5702 12.0715 25.5089 13.1226ZM39.8516 54.8955C42.9747 53.8232 43.3645 51.7963 43.3061 50.6384L34.5106 53.6583C35.1763 54.6095 36.7285 55.9679 39.8516 54.8955ZM33.8064 52.0531L42.8757 48.9392L39.952 40.424L30.8827 43.5379L33.8064 52.0531Z" fill="#5784BA"/>
</svg>
