<svg width="190" height="196" viewBox="0 0 190 196" fill="none" xmlns="http://www.w3.org/2000/svg">
<circle cx="92" cy="104" r="92" fill="#E5E6EB"/>
<mask id="mask0" mask-type="alpha" maskUnits="userSpaceOnUse" x="0" y="12" width="184" height="184">
<circle cx="92" cy="104" r="92" fill="#CECACA"/>
</mask>
<g mask="url(#mask0)">
<path d="M171.702 169.122C172.079 169.016 175.985 161.581 175.985 161.581C175.985 161.581 175.789 155.291 175.804 152.215C175.819 149.138 178.187 148.625 178.821 150.133C179.345 152.118 179.748 154.132 180.027 156.166C180.148 156.166 183.692 146.106 184.552 145.609C185.411 145.111 194.642 149.952 195.109 153.059C195.335 154.567 193.782 159.59 192.002 164.356C191.505 165.698 186.844 168.579 186.844 168.579C185.875 170.539 184.713 172.399 183.375 174.129L171.702 169.122Z" fill="#FFC9B0"/>
<path d="M183.436 175.607C183.234 175.606 183.033 175.565 182.847 175.486L171.129 170.509C170.896 170.41 170.692 170.254 170.536 170.055C170.379 169.857 170.275 169.622 170.233 169.373C170.191 169.123 170.213 168.868 170.295 168.629C170.378 168.39 170.519 168.175 170.706 168.005C171.189 167.342 172.939 164.16 174.477 161.219C174.477 159.71 174.296 154.854 174.311 152.169C174.326 149.485 175.819 148.112 177.116 147.841C177.749 147.708 178.407 147.802 178.978 148.105C179.548 148.408 179.994 148.902 180.238 149.5C180.393 149.844 180.514 150.203 180.6 150.571C182.682 145.307 183.209 144.538 183.933 144.221C184.401 143.98 185.11 143.618 188.458 145.367C190.238 146.272 196.089 149.5 196.587 152.773C196.904 154.854 195.079 160.48 193.39 164.838C192.847 166.346 189.906 168.382 187.99 169.604C187.009 171.552 185.826 173.392 184.461 175.094C184.2 175.393 183.832 175.577 183.436 175.607ZM173.979 168.443L183.028 172.259C183.992 170.856 184.858 169.39 185.623 167.87C185.747 167.623 185.941 167.418 186.181 167.282C187.846 166.321 189.369 165.134 190.705 163.752C193.118 157.327 193.827 153.949 193.722 153.195C193.48 151.551 187.689 147.946 185.351 147.162C184.552 148.67 183.013 152.788 182.335 154.447C181.264 157.237 181.128 157.599 179.997 157.554C178.866 157.508 178.564 156.498 178.353 154.99C178.184 153.627 177.927 152.277 177.584 150.948C177.391 151.319 177.303 151.736 177.327 152.154C177.327 155.171 177.508 161.4 177.508 161.475C177.522 161.732 177.465 161.987 177.343 162.214C175.729 165.336 174.718 167.251 173.979 168.443Z" fill="#093F68"/>
<path d="M182.817 164.733C182.433 164.733 182.062 164.587 181.782 164.323C181.501 164.06 181.332 163.699 181.309 163.315C181.287 161.064 180.475 158.891 179.017 157.177C178.736 156.894 178.578 156.512 178.578 156.113C178.578 155.715 178.736 155.333 179.017 155.05C179.299 154.774 179.678 154.619 180.072 154.619C180.467 154.619 180.846 154.774 181.128 155.05C183.16 157.287 184.308 160.188 184.356 163.209C184.356 163.594 184.21 163.965 183.946 164.245C183.683 164.525 183.322 164.694 182.938 164.718L182.817 164.733Z" fill="#093F68"/>
<path d="M187.93 176.602C186.422 178.834 174.07 199.783 156.152 208.546C151.577 210.813 146.539 211.99 141.432 211.984C137.511 211.984 132.383 209.104 127.994 206.148C125.611 204.504 123.47 202.845 121.962 201.623C120.453 200.402 119.639 199.602 119.639 199.602V207.671L119.549 238.333H65.1629V196.661C51.74 200.175 39.8403 205.122 37.578 208.516C35.9642 212.09 38.7243 224.156 45.0134 235.045L24.517 246.779C21.6364 241.817 7.70064 216.011 16.4029 198.094C20.641 189.377 31.3643 183.51 49.1761 176.753C70.6528 168.609 91.9184 171.746 104.331 171.61C112.782 171.54 120.949 174.664 127.195 180.358C132.745 185.365 140.045 190.101 145.791 187.31C156.349 182.137 167.011 168.971 170.209 164.325L187.93 176.602Z" fill="#5784BA"/>
<path d="M24.5321 248.287C24.2678 248.289 24.0075 248.222 23.7772 248.093C23.5469 247.963 23.3547 247.775 23.22 247.548C20.2036 242.45 5.98126 216.087 15.0455 197.43C19.6757 187.899 31.3341 181.911 48.6482 175.35C65.9623 168.79 83.0954 169.423 95.6134 169.891C98.7806 170.011 101.782 170.132 104.316 170.102C113.147 170.011 121.684 173.272 128.206 179.226C133.122 183.661 140.045 188.426 145.128 185.953C155.428 180.916 166.046 167.704 168.957 163.466C169.07 163.3 169.215 163.159 169.383 163.05C169.552 162.942 169.74 162.868 169.937 162.832C170.131 162.794 170.33 162.797 170.523 162.841C170.715 162.886 170.896 162.97 171.053 163.089L188.775 175.32C189.105 175.546 189.331 175.894 189.405 176.287C189.478 176.68 189.393 177.087 189.167 177.417C189.031 177.598 188.835 177.914 188.564 178.337C178.625 193.811 167.931 204.413 156.816 209.843C152.036 212.217 146.77 213.451 141.432 213.447C137.843 213.447 133.167 211.457 127.135 207.339C124.827 205.831 122.746 204.112 121.177 202.815L121.072 238.257C121.072 238.657 120.913 239.041 120.63 239.324C120.347 239.607 119.964 239.765 119.564 239.765H65.1629C64.7629 239.765 64.3793 239.607 64.0964 239.324C63.8136 239.041 63.6547 238.657 63.6547 238.257V198.637C49.8095 202.423 40.6999 206.842 38.9052 209.194C37.759 212.135 40.0665 223.417 46.2652 234.23C46.3649 234.403 46.4296 234.593 46.4555 234.79C46.4814 234.987 46.4681 235.188 46.4162 235.38C46.3643 235.572 46.275 235.752 46.1533 235.909C46.0316 236.066 45.88 236.198 45.7072 236.297L25.2711 248.076C25.0471 248.209 24.7925 248.281 24.5321 248.287ZM84.3019 172.636C73.8954 172.636 61.7845 173.586 49.719 178.171C33.5662 184.294 21.9531 190.146 17.7603 198.743C9.94782 214.82 21.199 237.684 25.0901 244.712L42.9019 234.442C37.2914 224.11 34.2449 212.181 36.2055 207.852C36.2367 207.777 36.2772 207.706 36.3262 207.641C39.1465 203.418 52.6449 198.335 64.7708 195.168C64.9986 195.107 65.2377 195.099 65.4688 195.147C65.6999 195.195 65.9165 195.296 66.1014 195.443C66.2862 195.59 66.434 195.778 66.533 195.992C66.6319 196.206 66.6793 196.44 66.6711 196.676V236.824H118.07L118.161 199.602C118.163 199.31 118.249 199.025 118.41 198.782C118.571 198.538 118.798 198.346 119.066 198.23C119.334 198.112 119.631 198.075 119.921 198.123C120.21 198.171 120.479 198.302 120.695 198.501C120.695 198.501 121.554 199.285 122.972 200.462C124.39 201.638 126.562 203.327 128.839 204.896C135.611 209.511 139.396 210.476 141.432 210.476C146.308 210.477 151.119 209.352 155.489 207.188C162.758 203.629 173.919 195.515 185.864 177.024L170.571 166.467C166.544 171.972 156.545 183.781 146.44 188.728C141.146 191.307 134.374 188.879 126.185 181.534C120.223 176.089 112.42 173.104 104.346 173.179C101.737 173.179 98.7052 173.088 95.4927 172.967C92.2803 172.847 88.3137 172.681 84.3019 172.681V172.636Z" fill="#093F68"/>
<path d="M85.9609 166.497H97.8003V173.344C97.8003 174.684 97.268 175.97 96.3205 176.917C95.3729 177.865 94.0878 178.397 92.7478 178.397H91.0134C89.6734 178.397 88.3883 177.865 87.4408 176.917C86.4933 175.97 85.9609 174.684 85.9609 173.344V166.497Z" fill="#FFC9B0"/>
<path d="M92.8082 179.905H91.0134C89.2734 179.905 87.6047 179.214 86.3743 177.983C85.144 176.753 84.4528 175.084 84.4528 173.344V166.497C84.4528 166.097 84.6117 165.714 84.8945 165.431C85.1773 165.148 85.561 164.989 85.961 164.989H97.8003C98.2003 164.989 98.5839 165.148 98.8668 165.431C99.1496 165.714 99.3085 166.097 99.3085 166.497V173.344C99.3086 175.074 98.6256 176.734 97.4083 177.962C96.191 179.191 94.5377 179.889 92.8082 179.905ZM87.4692 168.005V173.344C87.4692 174.284 87.8426 175.186 88.5073 175.851C89.1719 176.515 90.0734 176.889 91.0134 176.889H92.8082C93.7482 176.889 94.6497 176.515 95.3143 175.851C95.979 175.186 96.3524 174.284 96.3524 173.344V168.005H87.4692Z" fill="#093F68"/>
<path d="M50.0206 135.594C50.0206 135.594 39.4632 90.9366 43.3845 83.8028C47.3058 76.6691 53.4744 79.3687 53.4744 79.3687C53.4744 79.3687 61.8298 55.2376 80.2901 54.2724C98.7504 53.3071 107.845 65.8251 118.176 64.3622C128.507 62.8992 133.424 59.1891 133.424 59.1891C135.157 62.5063 135.871 66.2617 135.477 69.9835C135.082 73.7053 133.597 77.2276 131.207 80.1078C131.207 80.1078 138.838 75.4323 139.819 86.2461C140.799 97.0599 134.163 134.508 134.163 134.508L126.773 133.226L50.0206 135.594Z" fill="#F4CFDF"/>
<path d="M50.0206 137.102C49.674 137.112 49.3348 137.001 49.0602 136.79C48.7855 136.578 48.592 136.279 48.5124 135.941C47.4114 131.311 37.955 90.4992 42.0121 83.0788C45.0285 77.5739 49.5531 76.9254 52.5695 77.5287C54.696 72.2349 63.3531 53.6841 80.1996 52.7792C90.757 52.2061 98.5544 56.0067 104.783 59.0533C109.625 61.4211 113.832 63.4723 117.95 62.8841C127.798 61.4664 132.474 58.0277 132.519 57.9975C132.689 57.8696 132.885 57.7792 133.093 57.7324C133.301 57.6856 133.517 57.6835 133.726 57.7261C133.933 57.77 134.129 57.8571 134.3 57.9819C134.472 58.1066 134.615 58.2661 134.721 58.45C136.252 61.4101 137.051 64.6943 137.051 68.027C137.051 71.3598 136.252 74.644 134.721 77.6041C135.628 77.5592 136.53 77.7625 137.33 78.1923C139.623 79.3536 140.98 82.008 141.357 86.1254C142.337 97.0297 135.943 133.211 135.671 134.75C135.601 135.141 135.38 135.488 135.055 135.717C134.73 135.946 134.328 136.037 133.937 135.971L126.697 134.704L50.1111 137.102H50.0206ZM50.7144 80.3641C49.0101 80.3641 46.597 81.1031 44.6816 84.5267C42.0724 89.2474 47.1852 116.878 51.1819 134.041L126.697 131.688C126.802 131.673 126.909 131.673 127.014 131.688L132.896 132.714C134.118 125.685 139.125 95.6874 138.28 86.3818C138.024 83.3654 137.209 81.5254 135.927 80.8769C135.269 80.6699 134.573 80.6085 133.888 80.697C133.203 80.7856 132.545 81.0219 131.961 81.3897C131.658 81.5742 131.3 81.646 130.949 81.5924C130.598 81.5388 130.278 81.3634 130.043 81.0968C129.809 80.8303 129.677 80.4897 129.669 80.135C129.661 79.7803 129.778 79.4342 130 79.1575C132.05 76.7305 133.392 73.7859 133.879 70.6467C134.366 67.5074 133.979 64.2947 132.76 61.3608C128.272 63.7278 123.392 65.2608 118.357 65.8854C113.274 66.6093 108.705 64.3772 103.426 61.7831C97.197 58.7667 90.1688 55.2828 80.3354 55.7503C63.1268 56.6703 54.9524 79.5949 54.8619 79.8815C54.7947 80.0778 54.6877 80.2582 54.5475 80.4114C54.4074 80.5645 54.2372 80.687 54.0475 80.7713C53.8572 80.8543 53.6518 80.8972 53.4442 80.8972C53.2366 80.8972 53.0312 80.8543 52.8409 80.7713C52.1624 80.5084 51.442 80.3705 50.7144 80.3641Z" fill="#093F68"/>
<path d="M57.8934 145.563C64.2822 145.563 69.4613 141.1 69.4613 135.594C69.4613 130.088 64.2822 125.625 57.8934 125.625C51.5047 125.625 46.3256 130.088 46.3256 135.594C46.3256 141.1 51.5047 145.563 57.8934 145.563Z" fill="#FFC9B0"/>
<path d="M57.8934 147.057C50.6993 147.057 44.8324 141.914 44.8324 135.594C44.8324 129.275 50.6993 124.117 57.8934 124.117C65.0875 124.117 70.9695 129.26 70.9695 135.594C70.9695 141.929 65.1026 147.057 57.8934 147.057ZM57.8934 127.133C52.3583 127.133 47.8488 130.934 47.8488 135.594C47.8488 140.255 52.3734 144.04 57.8934 144.04C63.4134 144.04 67.9531 140.255 67.9531 135.594C67.9531 130.934 63.4436 127.133 57.8934 127.133Z" fill="#093F68"/>
<path d="M125.31 145.563C131.699 145.563 136.878 141.1 136.878 135.594C136.878 130.088 131.699 125.625 125.31 125.625C118.921 125.625 113.742 130.088 113.742 135.594C113.742 141.1 118.921 145.563 125.31 145.563Z" fill="#FFC9B0"/>
<path d="M125.31 147.057C118.101 147.057 112.234 141.914 112.234 135.594C112.234 129.275 118.101 124.117 125.31 124.117C132.519 124.117 138.371 129.26 138.371 135.594C138.371 141.929 132.489 147.057 125.31 147.057ZM125.31 127.133C119.76 127.133 115.25 130.934 115.25 135.594C115.25 140.255 119.775 144.04 125.31 144.04C130.845 144.04 135.354 140.255 135.354 135.594C135.354 130.934 130.845 127.133 125.31 127.133Z" fill="#093F68"/>
<path d="M91.9032 168.066C82.6631 168.054 73.8055 164.375 67.276 157.837C60.7465 151.299 57.079 142.436 57.079 133.196V100.906C57.079 100.906 61.3924 109.955 74.1819 97.7084C111.329 116.531 126.818 100.906 126.818 100.906V133.196C126.818 137.779 125.915 142.317 124.159 146.551C122.404 150.784 119.832 154.63 116.589 157.869C113.346 161.107 109.497 163.675 105.261 165.424C101.025 167.174 96.4862 168.072 91.9032 168.066Z" fill="#FFC9B0"/>
<path d="M91.9032 169.574C82.2668 169.55 73.0325 165.708 66.2227 158.89C59.413 152.072 55.5827 142.833 55.5707 133.196V100.906C55.5653 100.559 55.6793 100.222 55.8937 99.9493C56.108 99.677 56.4095 99.4869 56.7475 99.4108C57.0855 99.3347 57.4395 99.3773 57.7498 99.5314C58.0601 99.6856 58.3078 99.9419 58.4514 100.257C58.7761 100.849 59.2266 101.362 59.7713 101.761C60.3159 102.16 60.9413 102.434 61.6035 102.565C63.6396 102.912 67.2894 102.173 73.0658 96.6225C73.2909 96.4076 73.577 96.2675 73.8849 96.2216C74.1927 96.1757 74.5072 96.2262 74.7852 96.3661C93.4416 105.807 106.322 106.23 113.832 104.918C121.886 103.515 125.642 99.8651 125.687 99.8349C125.899 99.6256 126.168 99.4839 126.461 99.4275C126.753 99.3712 127.056 99.4027 127.331 99.5182C127.603 99.6337 127.836 99.8268 128 100.074C128.163 100.32 128.251 100.61 128.251 100.906V133.196C128.239 142.835 124.406 152.077 117.593 158.895C110.78 165.714 101.542 169.554 91.9032 169.574ZM58.5871 104.586V133.241C58.5991 142.086 62.1178 150.564 68.3717 156.818C74.6255 163.072 83.1041 166.591 91.9484 166.603C100.793 166.591 109.271 163.072 115.525 156.818C121.779 150.564 125.298 142.086 125.31 133.241V103.937C119.473 107.632 103.516 113.937 74.4534 99.5182C69.3707 104.194 64.8763 106.215 61.0907 105.551C60.2059 105.379 59.3584 105.052 58.5871 104.586Z" fill="#093F68"/>
<path d="M75.7655 131.341C77.548 131.341 78.993 129.896 78.993 128.114C78.993 126.331 77.548 124.886 75.7655 124.886C73.983 124.886 72.538 126.331 72.538 128.114C72.538 129.896 73.983 131.341 75.7655 131.341Z" fill="#093F68"/>
<path d="M109.067 131.341C110.849 131.341 112.294 129.896 112.294 128.114C112.294 126.331 110.849 124.886 109.067 124.886C107.284 124.886 105.839 126.331 105.839 128.114C105.839 129.896 107.284 131.341 109.067 131.341Z" fill="#093F68"/>
<path d="M79.1891 158.896C79.1303 157.189 79.4158 155.487 80.0286 153.892C80.6415 152.297 81.5691 150.842 82.7563 149.614C83.9434 148.385 85.3657 147.408 86.9384 146.74C88.5112 146.073 90.2022 145.729 91.9107 145.729C93.6192 145.729 95.3102 146.073 96.883 146.74C98.4557 147.408 99.8781 148.385 101.065 149.614C102.252 150.842 103.18 152.297 103.793 153.892C104.406 155.487 104.691 157.189 104.632 158.896H79.1891Z" fill="white"/>
<path d="M91.9183 144.221C95.6917 144.225 99.3092 145.727 101.976 148.396C104.643 151.066 106.141 154.685 106.141 158.458C106.141 158.858 105.982 159.242 105.699 159.525C105.416 159.808 105.032 159.967 104.632 159.967H79.1892C78.7892 159.967 78.4055 159.808 78.1227 159.525C77.8399 159.242 77.681 158.858 77.681 158.458C77.681 154.682 79.181 151.061 81.851 148.391C84.521 145.721 88.1424 144.221 91.9183 144.221ZM103.019 156.95C102.66 154.258 101.336 151.788 99.2931 149.999C97.25 148.21 94.6266 147.223 91.9108 147.223C89.195 147.223 86.5716 148.21 84.5284 149.999C82.4853 151.788 81.1614 154.258 80.8029 156.95H103.019Z" fill="#093F68"/>
<path d="M91.7676 140.481C90.6862 140.476 89.6069 140.386 88.54 140.209C88.342 140.175 88.1526 140.101 87.9829 139.994C87.8132 139.886 87.6664 139.746 87.5509 139.581C87.4353 139.416 87.3533 139.231 87.3095 139.035C87.2658 138.838 87.2611 138.635 87.2958 138.437C87.3304 138.239 87.4037 138.05 87.5115 137.88C87.6194 137.71 87.7596 137.564 87.9241 137.448C88.0887 137.333 88.2744 137.251 88.4706 137.207C88.6669 137.163 88.8698 137.158 89.0679 137.193C90.458 137.43 91.8744 137.47 93.2757 137.314C92.7227 134.871 91.8238 132.519 90.6062 130.331C90.4251 129.978 90.39 129.569 90.5085 129.19C90.6271 128.812 90.8897 128.496 91.2397 128.31C91.5937 128.124 92.0071 128.086 92.3889 128.205C92.7707 128.324 93.0897 128.589 93.2757 128.943C94.7839 131.718 97.001 136.695 96.0207 138.867C95.8838 139.182 95.6767 139.461 95.4153 139.683C95.1539 139.905 94.8451 140.065 94.5125 140.149C93.6136 140.366 92.6923 140.478 91.7676 140.481Z" fill="#093F68"/>
<path d="M67.9192 122.638C67.1419 122.842 66.3157 122.728 65.6223 122.322C64.9289 121.916 64.4252 121.252 64.2218 120.474C64.0185 119.697 64.1323 118.871 64.5381 118.177C64.9439 117.484 65.6086 116.98 66.3858 116.777L80.802 111.508C81.553 111.232 82.383 111.265 83.1092 111.601C83.8355 111.937 84.3986 112.548 84.6746 113.299C84.9507 114.05 84.9171 114.88 84.5812 115.606C84.2453 116.332 83.6346 116.895 82.8836 117.171L68.4699 122.456C68.2914 122.531 68.1073 122.592 67.9192 122.638Z" fill="#093F68"/>
<path d="M118.678 122.728L118.128 122.63L103.698 117.112C102.967 116.816 102.38 116.247 102.064 115.524C101.748 114.802 101.727 113.984 102.006 113.246C102.285 112.509 102.842 111.91 103.558 111.578C104.273 111.246 105.09 111.208 105.834 111.471L120.185 116.914C120.96 117.127 121.618 117.639 122.015 118.337C122.413 119.035 122.517 119.863 122.304 120.638C122.091 121.412 121.579 122.071 120.881 122.468C120.183 122.866 119.355 122.969 118.581 122.757L118.678 122.728Z" fill="#093F68"/>
<path d="M94.0449 179.694H90.3498C88.9338 179.694 87.7859 180.842 87.7859 182.258V184.068C87.7859 185.484 88.9338 186.632 90.3498 186.632H94.0449C95.4609 186.632 96.6088 185.484 96.6088 184.068V182.258C96.6088 180.842 95.4609 179.694 94.0449 179.694Z" fill="white"/>
<path d="M94.0448 188.14H90.3497C89.2697 188.14 88.234 187.711 87.4703 186.947C86.7066 186.183 86.2776 185.148 86.2776 184.068V182.258C86.2776 181.178 86.7066 180.142 87.4703 179.378C88.234 178.615 89.2697 178.186 90.3497 178.186H94.0448C95.1248 178.186 96.1606 178.615 96.9242 179.378C97.6879 180.142 98.1169 181.178 98.1169 182.258V184.068C98.1169 185.148 97.6879 186.183 96.9242 186.947C96.1606 187.711 95.1248 188.14 94.0448 188.14ZM90.3497 181.202C90.0697 181.202 89.8012 181.313 89.6032 181.511C89.4052 181.709 89.294 181.978 89.294 182.258V184.068C89.294 184.348 89.4052 184.616 89.6032 184.814C89.8012 185.012 90.0697 185.123 90.3497 185.123H94.0448C94.3248 185.123 94.5933 185.012 94.7913 184.814C94.9893 184.616 95.1005 184.348 95.1005 184.068V182.258C95.1005 181.978 94.9893 181.709 94.7913 181.511C94.5933 181.313 94.3248 181.202 94.0448 181.202H90.3497Z" fill="#093F68"/>
<path d="M89.6711 186.632L84.1058 218.168L92.1898 228.786L98.2678 217.655L94.7236 186.632H89.6711Z" fill="white"/>
<path d="M92.2049 230.294C91.9708 230.294 91.7399 230.239 91.5304 230.135C91.321 230.03 91.1389 229.878 90.9984 229.691L82.8993 219.133C82.6548 218.793 82.552 218.371 82.6128 217.957L88.178 186.451C88.2391 186.097 88.4246 185.776 88.7011 185.546C88.9776 185.317 89.3269 185.194 89.6862 185.199H94.7839C95.1568 185.197 95.5173 185.333 95.7958 185.58C96.0743 185.828 96.2511 186.171 96.2921 186.541L99.8213 217.55C99.857 217.863 99.7937 218.179 99.6403 218.455L93.6076 229.585C93.4877 229.806 93.3146 229.993 93.1038 230.13C92.8931 230.267 92.6515 230.349 92.401 230.369L92.2049 230.294ZM85.7348 217.791L92.0239 226.026L96.7446 217.354L93.4115 188.14H90.9682L85.7348 217.791Z" fill="#093F68"/>
<path d="M65.1629 204.428C64.7629 204.428 64.3793 204.269 64.0964 203.987C63.8136 203.704 63.6547 203.32 63.6547 202.92C63.6547 196.887 63.7904 186.918 63.6547 185.938C63.5733 185.552 63.6461 185.15 63.8575 184.817C64.069 184.485 64.4021 184.248 64.7858 184.158C64.9821 184.112 65.1856 184.105 65.3845 184.138C65.5834 184.172 65.7735 184.245 65.9437 184.353C66.1138 184.461 66.2605 184.603 66.3751 184.769C66.4897 184.935 66.5698 185.122 66.6108 185.319C66.8068 186.179 66.7465 195.379 66.6108 202.965C66.5996 203.347 66.4439 203.711 66.1752 203.982C65.9064 204.254 65.5446 204.413 65.1629 204.428Z" fill="#093F68"/>
<path d="M119.669 201.11C119.269 201.11 118.885 200.951 118.603 200.669C118.32 200.386 118.161 200.002 118.161 199.602V187.612C118.161 187.212 118.32 186.828 118.603 186.545C118.885 186.263 119.269 186.104 119.669 186.104C120.069 186.104 120.453 186.263 120.736 186.545C121.018 186.828 121.177 187.212 121.177 187.612V199.602C121.177 200.002 121.018 200.386 120.736 200.669C120.453 200.951 120.069 201.11 119.669 201.11Z" fill="#093F68"/>
<path d="M113.621 198.758H104.572C104.172 198.758 103.788 198.599 103.506 198.316C103.223 198.033 103.064 197.649 103.064 197.249C103.064 196.849 103.223 196.466 103.506 196.183C103.788 195.9 104.172 195.741 104.572 195.741H113.621C114.021 195.741 114.405 195.9 114.688 196.183C114.971 196.466 115.129 196.849 115.129 197.249C115.129 197.649 114.971 198.033 114.688 198.316C114.405 198.599 114.021 198.758 113.621 198.758Z" fill="#093F68"/>
</g>
<path d="M138.991 30.0455C138.978 31.8414 139.126 33.1948 139.436 34.1053C139.747 35.0165 140.419 35.527 141.45 35.6344C141.643 35.6546 141.821 35.6404 141.997 35.626C142.166 35.6763 142.337 35.7269 142.528 35.7468C143.561 35.8544 144.322 35.4933 144.816 34.666C145.305 33.8388 145.731 32.5451 146.088 30.785L148.436 17.1558C148.887 14.4988 149.173 12.5873 149.295 11.4219C149.46 9.83597 149.172 8.55554 148.435 7.58121C147.693 6.60692 146.648 6.04847 145.289 5.90687C145.219 5.89955 145.163 5.90979 145.093 5.9053C145.024 5.89523 144.971 5.8738 144.899 5.86627C143.544 5.72502 142.402 6.05556 141.478 6.85687C140.554 7.65818 140.012 8.85134 139.846 10.4373C139.725 11.602 139.611 13.5314 139.504 16.2249L138.991 30.0455Z" fill="#5784BA"/>
<path d="M141.497 40.7065C140.184 40.5697 139.019 40.8686 138.005 41.6014C136.99 42.3375 136.423 43.2964 136.299 44.4797C136.16 45.8178 136.519 46.917 137.378 47.7789C138.237 48.6401 139.292 49.1376 140.542 49.268C141.815 49.4006 142.965 49.1384 143.993 48.483C145.021 47.8268 145.605 46.8223 145.746 45.4635C145.87 44.2795 145.52 43.2251 144.7 42.2977C143.88 41.3752 142.813 40.8437 141.497 40.7066" fill="#5784BA"/>
<path d="M165.131 43.1695C163.818 43.0327 162.653 43.3316 161.638 44.0657C160.623 44.8004 160.056 45.7594 159.933 46.9447C159.794 48.2815 160.154 49.3808 161.011 50.2426C161.872 51.1038 162.927 51.6014 164.177 51.7317C165.45 51.8644 166.598 51.602 167.627 50.9466C168.655 50.2904 169.238 49.2844 169.379 47.9284C169.503 46.7431 169.155 45.6888 168.333 44.7627C167.513 43.838 166.448 43.3067 165.132 43.1697" fill="#5784BA"/>
<path d="M181.602 15.1535C180.586 13.1946 179.013 11.5486 176.923 10.2571C174.846 8.97742 172.355 8.17785 169.517 7.88209C166.46 7.56358 163.672 7.91873 161.235 8.94023C158.796 9.96281 156.844 11.3974 155.433 13.2042C154.014 15.02 153.194 16.9085 152.994 18.8193C152.888 19.8401 153.214 20.8364 153.959 21.7789C154.707 22.726 155.703 23.2703 156.921 23.3972C159 23.6138 160.541 22.5421 161.511 20.2267C162.374 18.3175 163.34 16.8936 164.381 15.9931C165.359 15.1432 166.838 14.8144 168.773 15.0161C170.442 15.19 171.71 15.7953 172.654 16.8685C173.584 17.9264 173.968 19.1138 173.824 20.4973C173.759 21.1677 173.522 21.8098 173.135 22.3606C172.721 22.9472 172.229 23.474 171.672 23.9261C171.081 24.4059 170.115 25.1193 168.798 26.0495C167.264 27.1352 166.018 28.0956 165.098 28.9051C164.122 29.7682 163.303 30.7956 162.681 31.9409C162.03 33.1207 161.611 34.5688 161.437 36.2401C161.288 37.6685 161.571 38.8162 162.279 39.6505C162.98 40.4764 163.911 40.9575 165.046 41.0758C167.216 41.3019 168.704 40.2588 169.341 38.0812C169.643 37.181 169.866 36.5522 170.008 36.1954C170.137 35.8714 170.309 35.5441 170.519 35.2203C170.723 34.9061 171.032 34.5563 171.437 34.1817C171.86 33.7867 172.422 33.329 173.107 32.8243C175.664 30.9761 177.472 29.6338 178.481 28.8336C179.522 28.0097 180.46 26.9858 181.272 25.7922C182.107 24.5704 182.619 23.0832 182.797 21.3734C183.022 19.2134 182.621 17.1203 181.605 15.1544" fill="#5784BA"/>
</svg>
